PathFileType	4	(X/Y/Z)	Patient4_TMGait_0pt3_02_right_10.trc.trc
DataRate	CameraRate	NumFrames	NumMarkers	Units	OrigDataRate	OrigDataStartFrame	OrigNumFrames
51.282051282051	51.282051282051	6	33	mm	51.282051282051	71	       141
Frame#	Time	Sacral			L.Shoulder			Chest			R.Shoulder			Neck			R.ASIS			L.ASIS			R.Thigh.Superior			R.Thigh.Lateral			R.Thigh.Inferior			R.Patella			L.Thigh.Superior			L.Thigh.Lateral			L.Thigh.Inferior			L.Patella			L.Shank.Superior			L.Shank.Lateral			L.Shank.Inferior			R.Shank.Superior			R.Shank.Lateral			R.Shank.Inferior			R.Heel			R.Midfoot.Superior			R.Midfoot.Lateral			R.Toe			L.Heel			L.Midfoot.Lateral			L.Midfoot.Superior			L.Toe			L.Elbow			L.Wrist			R.Elbow			R.Wrist			
		X1	Y1	Z1	X2	Y2	Z2	X3	Y3	Z3	X4	Y4	Z4	X5	Y5	Z5	X6	Y6	Z6	X7	Y7	Z7	X8	Y8	Z8	X9	Y9	Z9	X10	Y10	Z10	X11	Y11	Z11	X12	Y12	Z12	X13	Y13	Z13	X14	Y14	Z14	X15	Y15	Z15	X16	Y16	Z16	X17	Y17	Z17	X18	Y18	Z18	X19	Y19	Z19	X20	Y20	Z20	X21	Y21	Z21	X22	Y22	Z22	X23	Y23	Z23	X24	Y24	Z24	X25	Y25	Z25	X26	Y26	Z26	X27	Y27	Z27	X28	Y28	Z28	X29	Y29	Z29	X30	Y30	Z30	X31	Y31	Z31	X32	Y32	Z32	X33	Y33	Z33	

71	19.855000000000	736.877050221732	992.467692183174	579.743358298968	868.531090116766	1416.384906250768	364.979147270933	1000.837223041396	1355.602622000678	505.645922859817	952.487691579261	1436.151278258611	687.841857577515	886.306796742008	1484.882353209846	517.469594321986	978.734582857673	932.062171893649	664.250560897870	931.238538592649	957.755917733934	394.195661848645	991.859273900541	721.485281581051	623.290196154854	904.728489413467	613.496623435954	685.517864207046	964.229735827420	559.406438318059	595.450900896417	952.188125714951	466.932186384324	598.084503035007	1015.580480751663	766.625943844453	423.691823868636	963.374350964870	639.509528493751	347.519582056621	1062.983987226283	579.302042278693	413.047006893060	1084.821987521464	510.264961143814	410.297443127372	1062.621106215752	437.368459973670	395.920888403968	988.000509886569	316.975225491793	333.381151849642	1059.826611279754	207.139345065821	390.497350385759	904.716301000869	382.622815025104	604.254355434381	817.827572260864	290.539748441080	667.585008971085	835.021119577491	194.450603187724	597.945410128755	673.222160117551	43.417529376177	566.177673806009	844.855871978797	94.167585767922	601.049239238723	755.217897135638	36.952417091755	642.122868739002	963.509135320276	42.390261828214	634.642936063410	955.113888568194	38.116364909294	414.055707531602	1034.980716890081	38.629939648089	339.485712532536	1111.651522240753	106.912579377091	369.886731382935	1243.428668936739	64.879295478465	351.421017531067	729.998050801021	1088.719980946643	284.733816426276	708.433447099920	829.597878247976	288.527144551757	1160.434051586279	1187.905186843593	814.135909254860	1380.161370624549	1293.799360019886	740.883165046846	
72	19.874500000000	736.832403057466	992.335191329417	577.529145422923	868.462063969671	1414.716452972582	360.168093927801	1001.635269470665	1354.065992627545	500.211418965285	954.620795510704	1435.728284315813	682.258845427863	887.175583048176	1483.933661612677	512.167715592887	978.886744878739	931.128428972478	661.281944776335	930.167723037276	956.231227598357	391.377931870979	990.373083895318	720.288129645440	621.179167867689	902.156842345877	613.206870430742	683.829103219189	960.970473072791	558.319125578211	593.995313778839	947.858320388608	466.057746629771	596.837944990360	1014.271132503051	764.832185609379	420.932909577103	960.267181752901	637.737521149555	345.967788370852	1060.438607888490	577.568281953145	410.482354081728	1081.057139236459	508.218156334592	408.415661798930	1059.200094451041	435.267942703830	394.315365259474	984.270241137551	314.905992032170	332.479895575224	1055.502463806082	205.244732683243	390.248846167986	900.137908297500	382.090696128278	603.296709672445	812.852504836169	290.642247743563	667.012363344923	829.568174218803	194.242971198265	597.610524190730	667.344912009276	43.405229285307	566.181573011493	838.946570798189	94.063805196295	600.922931583588	749.337236209940	36.885822008924	642.102462377531	957.646901535046	42.299686959164	634.649337041265	949.544833112394	37.904417734285	414.501822588438	1029.239519036361	37.751630863201	339.668942257334	1106.741011067667	104.751356874004	370.251017826617	1238.000602395957	61.174876174873	351.425645264626	729.076979767294	1086.543468753511	283.237492337106	710.952076547169	826.808206897347	288.573491492250	1166.056240654027	1190.852430761378	806.851870282310	1380.334738404927	1304.430310611798	730.046620858170	
73	19.894000000000	736.823794028536	992.059476976322	575.103658477579	868.748951150889	1412.857498457979	355.148262498441	1002.656608459521	1352.289795114306	494.682804805453	956.836580479795	1435.041794563342	676.557396793990	888.272503096430	1482.799133922835	506.716387531106	979.118135443480	930.071436052780	658.176299792663	929.201116896850	954.520620960395	388.404953275914	989.232733776141	719.023732594919	618.953609157550	900.028585051460	612.779963538421	681.959045775218	958.274464710238	557.153622136566	592.393799957274	944.183513233930	465.023097522912	595.457518023350	1013.439586625963	763.328329811322	418.180424443755	958.040181983946	636.095744866066	344.439130389587	1058.877060806055	576.118771166486	407.924942262258	1078.376039373863	506.324366831533	406.551122406923	1056.623663611900	433.192929067426	392.760888810674	980.930963153585	313.152759751451	331.568788997929	1051.040155008562	203.374624405074	390.014063463993	896.039868064879	381.434602743830	602.202467331158	808.211107734634	290.782726486430	666.353727393690	824.302150141138	194.018531083465	597.232122968124	661.500572726070	43.475564707573	566.189332738801	833.095830134114	93.976984865069	600.811337480982	743.492597746374	36.853065179001	642.062857800394	951.828631312529	42.121889787607	634.673418429671	943.202225850889	37.829331518499	414.921475108907	1022.664761762592	37.070903722256	339.766045774479	1101.089200657772	102.706641877969	370.580789064806	1231.801676832127	57.535498691475	351.220249997354	729.267925140996	1083.797266779631	281.466154513524	715.350477739308	823.463384455222	288.308546074633	1170.906672767964	1192.710755385254	799.593323585107	1379.862912392578	1313.180582152045	719.436834838681	
74	19.913500000000	736.873451247237	991.801901550564	572.467613304926	869.304588884872	1410.984414538655	349.974825537990	1003.858187796039	1350.464504258535	489.071542889907	959.138220325269	1434.256429217109	670.772119541561	889.551697528816	1481.628735269538	501.177464724680	979.429465987565	929.022225781554	654.906045437091	928.365712322078	952.805704167434	385.247902472792	988.292288983801	717.774035415062	616.610566210840	898.142084513664	612.340498736917	679.932517273465	955.921865773816	555.998455478359	590.677455491788	940.929981182884	463.944675818926	593.987855262748	1013.031210425681	762.223310848480	415.455036528357	956.654832505058	634.708383982052	342.865490262860	1058.150936360313	575.007710469585	405.389443979019	1076.669595816766	504.702685645905	404.707680239643	1054.829272145438	431.275198999595	391.262614998429	978.080994585798	311.756265341581	330.601217600617	1046.650787521192	201.646498394079	389.776391194737	892.239413890750	380.768136430474	601.015232509656	803.762583964134	291.028946122501	665.627264218097	819.157015920925	193.852757486203	596.830968020555	655.687457074840	43.669385842739	566.206825098698	827.308059299642	93.924225588360	600.725282220089	737.684336581361	36.880272605288	642.010226810734	946.048143319978	41.862767281263	634.715317468402	936.521130247802	37.845286956175	415.262747581978	1015.744481544496	36.580057651590	339.783010780791	1095.066523366593	100.913333136524	370.868956179769	1225.270819089643	54.259874395925	350.923207038984	730.447312748453	1080.712122379992	279.409429340736	721.528094659154	819.855383763595	287.619176036749	1175.051010693651	1193.690925282238	792.453046065154	1378.950262956126	1320.164577880421	709.104823042402	
75	19.933000000000	737.001199185058	991.697732519178	569.604920060845	870.054389537625	1409.252110688999	344.700348493729	1005.194185267121	1348.760078488899	483.400166319409	961.504828795988	1433.520768321019	664.940950423921	890.959424673816	1480.554986692004	495.610195034278	979.810470073145	928.093770232933	651.464977397691	927.706692784301	951.234430211922	381.894825395547	987.412954603917	716.615914281183	614.164629881492	896.310684055368	612.004531184794	677.784786970589	953.713537460244	554.938311395373	588.888841029369	937.887942197770	462.931080065998	592.483732759456	1012.972106699652	761.548109634634	412.767302926177	955.983722367244	633.637377878804	341.192533388435	1058.038249300431	574.221736631230	402.888797061535	1075.727771967770	503.396876180525	402.892980309726	1053.649570670971	429.587681256657	389.821631974883	975.690439313196	310.712061360608	329.555513860666	1042.428992552809	200.134176365134	389.525982648902	888.577724488980	380.197290351986	599.785182160961	799.382320623929	291.444732011711	664.851081973848	814.080094988726	193.818518342675	596.428918313936	649.906224458027	44.040650196285	566.238807308810	821.590171531578	93.923238820301	600.670497526163	731.913076861365	37.003250337706	641.951687271494	940.298557341511	41.531915821286	634.773928602326	929.808947214770	37.911908104431	415.500599518444	1008.820996451255	36.258255592864	339.733153442792	1088.931690297006	99.452000465882	371.108967186052	1218.711855889112	51.537548296398	350.617602796600	732.454725390858	1077.518582844697	277.050810372677	729.365802137280	816.282504822160	286.406265857904	1178.575532935293	1194.042901392750	785.507365874563	1377.822814700245	1325.546874382547	699.098567788129	
76	19.952500000000	737.218913256631	991.845464588583	566.491460776536	870.945408867171	1407.780233128253	339.368434892100	1006.620354649490	1347.311639337638	477.702584934695	963.890981713216	1432.958358045214	659.102474063397	892.438022134933	1479.683799412929	490.061264989899	980.240574797447	927.373353276713	647.872224611613	927.275065595007	949.912272414504	378.356731649383	986.488858941884	715.617409340757	611.644240183433	894.398355457877	611.866552795505	675.555140247164	951.507400683691	554.045964043512	587.072508113801	934.910521489169	462.070156537580	590.998888478871	1013.169590026835	761.259900929853	410.108514803790	955.820549151954	632.886397011824	339.382317715578	1058.267043364292	573.696695021373	400.430425554435	1075.267524170742	502.390727475755	401.111927027083	1052.842158641245	428.153254060488	388.429727281583	973.628073077994	309.976894818137	328.427576462462	1038.374747520148	198.869401524539	389.255676098383	884.948788848456	379.809080420629	598.559311573577	794.986459640027	292.085674222437	664.039722367933	809.044384999898	193.979802222754	596.045115106821	644.162218224540	44.656919462060	566.288725197376	815.954815058298	93.992566611088	600.648893578108	726.181489612810	37.267409902735	641.894511377169	934.574428210342	41.140828992942	634.846794853693	923.251435122595	37.995857697809	415.632614194191	1002.098199687693	36.074000065406	339.633347387588	1082.841701069022	98.348058537621	371.296396076795	1212.304027600940	49.446226447146	350.353294429510	735.108786834445	1074.425616462321	274.364218212929	738.722156997170	813.025604606446	284.588453004983	1181.573157815246	1194.029591479569	778.811685618352	1376.707434689545	1329.524503692586	689.464262483388	
